<?xml version="1.0" encoding="UTF-8"?>
<svg id="Layer_2" data-name="Layer 2" xmlns="http://www.w3.org/2000/svg" viewBox="0 0 773.68 135.55">
  <defs>
    <style>
      .cls-1 {
        fill: #39b54a;
      }
    </style>
  </defs>
  <g id="Aurora">
    <path id="Aurora-2" data-name="Aurora" class="cls-1" d="M717.53,28.7c-.67-2.02-2.02-6.07-3.88-12.14-2.02,6.58-2.7,8.6-4.05,12.14l-30.52,85.49c-3.04,8.26-4.22,12.65-4.89,17.37h-20.4c2.53-4.38,4.38-8.6,8.6-19.73l36.08-94.09c2.87-7.59,4.38-12.48,5.23-16.19h19.9c.84,3.71,2.19,7.59,5.4,16.19l36.08,94.09c3.71,9.61,6.58,16.19,8.6,19.73h-20.4c-1.01-5.4-2.53-11.3-4.72-17.37l-31.02-85.49Zm-360.1,103.85c-3.13-14.38-18.72-62.74-39.4-58.17,0,0-29.25,0-29.25,0,.31,12.89-.97,46.72,1.35,58.17h-18.43c2.37-26.74,2.27-103.93,0-130.88,30.13,3.98,97.83-13.49,96.22,33.99-.25,19.01-9.24,29.56-27.73,33.65,18.86,7.11,26.16,44.39,38.05,63.24h-20.8Zm-30.12-72c13.75-.07,24.74-8.85,24.35-23.34,1.84-30.52-44.22-19.07-62.74-21.14V60.55h38.39Zm184.5,6.81c3.66,89.87-123.2,90.21-119.55,0-3.54-89.59,123.33-90.04,119.55,0Zm-16.57,.17c.1-29.77-14.11-53.18-43.12-53.6-57.79-3.06-57.5,110.02,.17,107.04,26.21,0,42.95-20.8,42.95-53.43Zm123.44,65.02c-3.13-14.38-18.72-62.74-39.4-58.17,0,0-29.25,0-29.25,0,.31,12.89-.97,46.72,1.35,58.17h-18.43c2.37-26.74,2.26-103.93,0-130.88,30.13,3.98,97.83-13.49,96.22,33.99-.25,19.01-9.24,29.56-27.73,33.65,18.86,7.11,26.16,44.39,38.05,63.24h-20.8Zm-30.37-72c13.75-.07,24.74-8.85,24.35-23.34,1.84-30.52-44.22-19.07-62.73-21.14V60.55h38.38ZM246.5,2.55c-6.68,30.73,9.83,95.24-14.71,119.05-8.79,8.96-22.83,13.87-39.74,13.87-74.66,3.32-46.32-88.02-53.94-132.91h18.6c-2.76,11.84-.77,67.94-1.35,81.67,0,23.84,13.19,37.2,37.03,37.2s36.86-13.19,36.86-37.2c-.61-14.3,1.33-69.04-1.35-81.67h18.6ZM63.74,28.7c-.67-2.02-2.02-6.07-3.88-12.14-2.02,6.58-2.7,8.6-4.05,12.14L25.29,114.19c-3.04,8.26-4.22,12.65-4.89,17.37H0c2.53-4.38,4.38-8.6,8.6-19.73L44.68,17.74c2.87-7.59,4.38-12.48,5.23-16.19h19.9c.84,3.71,2.19,7.59,5.4,16.19l36.08,94.09c3.71,9.61,6.58,16.19,8.6,19.73h-20.4c-1.01-5.4-2.53-11.3-4.72-17.37L63.74,28.7Z"/>
  </g>
</svg>